<svg width="93" height="81" viewBox="0 0 93 81" fill="none" xmlns="http://www.w3.org/2000/svg">
<path d="M58.6732 34.6445H55.4052C55.2025 36.1786 53.8851 37.3547 52.3145 37.3547V40.6274C55.6838 40.6274 58.4452 37.9939 58.6732 34.6445Z" fill="#242424"/>
<path d="M58.6732 33.775C58.4705 30.4256 55.6838 27.7666 52.3145 27.7666V31.0393C53.9105 31.0393 55.2278 32.2409 55.4305 33.775H58.6732Z" fill="#242424"/>
<path d="M58.6732 43.4137C58.4705 40.0643 55.6838 37.4053 52.3145 37.4053V40.6779C53.9105 40.6779 55.2278 41.8796 55.4305 43.4137H58.6732Z" fill="#242424"/>
<path d="M58.6732 44.2832H55.4052C55.2025 45.8173 53.8851 46.9934 52.3145 46.9934V50.266C55.6838 50.266 58.4452 47.6326 58.6732 44.2832Z" fill="#242424"/>
<path d="M35.3401 0C32.0214 0.204541 29.3867 3.01698 29.3867 6.41748H32.6294C32.6294 4.80672 33.8201 3.4772 35.3401 3.27266V0Z" fill="#242424"/>
<path d="M51.4524 27.8176C48.1337 28.0477 45.499 30.8346 45.499 34.2351H48.7417C48.7417 32.6243 49.9324 31.3204 51.4524 31.0903V27.8176Z" fill="#242424"/>
<path d="M36.1768 0V3.29823C37.6968 3.50277 38.8621 4.83229 38.8621 6.41748H42.1048C42.1302 3.01698 39.4955 0.230109 36.1768 0Z" fill="#242424"/>
<path d="M52.2383 8.87207V12.1703C53.7583 12.3748 54.9237 13.7044 54.9237 15.2896H58.1664C58.1917 11.8635 55.557 9.07661 52.2383 8.87207Z" fill="#242424"/>
<path d="M36.1514 22.6785C39.4701 22.4739 42.1048 19.6615 42.1048 16.261H38.8621C38.8621 17.8717 37.6714 19.2013 36.1514 19.4058V22.6785Z" fill="#242424"/>
<path d="M35.315 22.6529V19.3802C33.795 19.1757 32.6296 17.8462 32.6296 16.261H29.3869C29.3616 19.6615 31.9963 22.4484 35.315 22.6529Z" fill="#242424"/>
<path d="M22.4205 0.460205H19.2031V22.1416H22.4205V0.460205Z" fill="#242424"/>
<path d="M32.6302 9.63892H23.2314V12.886H32.6302V9.63892Z" fill="#242424"/>
<path d="M58.1911 0.460205H45.4482V3.7073H58.1911V0.460205Z" fill="#242424"/>
<path d="M42.105 9.63892H38.8623V12.886H42.105V9.63892Z" fill="#242424"/>
<path d="M52.9976 8.87207H49.7549V12.1192H52.9976V8.87207Z" fill="#242424"/>
<path d="M35.3147 27.6899C31.996 27.8945 29.3613 30.7069 29.3613 34.1074H32.604C32.604 32.4967 33.7947 31.1671 35.3147 30.9626V27.6899Z" fill="#242424"/>
<path d="M36.1768 27.6899V30.9882C37.6968 31.1927 38.8621 32.5222 38.8621 34.1074H42.1048C42.1048 30.7069 39.4701 27.9201 36.1768 27.6899Z" fill="#242424"/>
<path d="M36.1514 50.4961C39.4701 50.2916 42.1048 47.4791 42.1048 44.0786H38.8621C38.8621 45.6894 37.6714 47.0189 36.1514 47.2234V50.4961Z" fill="#242424"/>
<path d="M35.2894 50.4961V47.1979C33.7694 46.9933 32.604 45.6638 32.604 44.0786H29.3613C29.3613 47.4791 31.9707 50.266 35.2894 50.4961Z" fill="#242424"/>
<path d="M42.105 35.0276H38.8623V43.1325H42.105V35.0276Z" fill="#242424"/>
<path d="M48.7671 33.3403H45.5244V36.5874H48.7671V33.3403Z" fill="#242424"/>
<path d="M48.7671 41.522H45.5244V44.7691H48.7671V41.522Z" fill="#242424"/>
<path d="M54.0626 37.3289H45.3984V40.5759H54.0626V37.3289Z" fill="#242424"/>
<path d="M32.604 35.0276H29.3613V43.1325H32.604V35.0276Z" fill="#242424"/>
<path d="M48.6909 4.67896H45.4482V12.068H48.6909V4.67896Z" fill="#242424"/>
<path d="M51.4525 50.3684V47.0702C49.9325 46.8656 48.7671 45.5361 48.7671 43.9509H45.5244C45.5244 47.3514 48.1338 50.1383 51.4525 50.3684Z" fill="#242424"/>
<path d="M73.2904 34.644H70.0223C69.8197 36.1781 68.5023 37.3542 66.9316 37.3542V40.6269C70.301 40.6269 73.0624 37.9934 73.2904 34.644Z" fill="#242424"/>
<path d="M73.2904 43.4137C73.0877 40.0643 70.301 37.4053 66.9316 37.4053V40.6779C68.5277 40.6779 69.845 41.8796 70.0477 43.4137H73.2904Z" fill="#242424"/>
<path d="M65.2085 28.1501H61.9658V36.5875H65.2085V28.1501Z" fill="#242424"/>
<path d="M65.2085 41.522H61.9658V49.857H65.2085V41.522Z" fill="#242424"/>
<path d="M68.4266 37.3289H61.8398V40.5759H68.4266V37.3289Z" fill="#242424"/>
<path d="M81.6255 33.3403H78.3828V36.5874H81.6255V33.3403Z" fill="#242424"/>
<path d="M91.1255 33.3403H87.8828V36.5874H91.1255V33.3403Z" fill="#242424"/>
<path d="M91.1255 41.394H87.8828V44.6411H91.1255V41.394Z" fill="#242424"/>
<path d="M84.3362 27.6899C81.0175 27.9201 78.3828 30.7069 78.3828 34.1074H81.6255C81.6255 32.4967 82.8162 31.1927 84.3362 30.9626V27.6899Z" fill="#242424"/>
<path d="M85.1973 27.6899V30.9882C86.7173 31.1927 87.8826 32.5222 87.8826 34.1074H91.1254C91.1254 30.7069 88.516 27.9201 85.1973 27.6899Z" fill="#242424"/>
<path d="M76.1018 27.6387C72.7831 27.8432 70.1484 30.6557 70.1484 34.0561H73.3912C73.3912 32.4454 74.5818 31.1414 76.1018 30.9113V27.6387Z" fill="#242424"/>
<path d="M76.1018 50.4961C72.7831 50.2916 70.1484 47.4791 70.1484 44.0786H73.3912C73.3912 45.6894 74.5818 47.0189 76.1018 47.2234V50.4961Z" fill="#242424"/>
<path d="M91.1256 43.823H87.9082V49.8314H91.1256V43.823Z" fill="#242424"/>
<path d="M81.6255 41.394H78.3828V44.6411H81.6255V41.394Z" fill="#242424"/>
<path d="M81.6256 43.823H78.4082V49.8314H81.6256V43.823Z" fill="#242424"/>
<path d="M91.1257 37.3289H78.3828V40.5759H91.1257V37.3289Z" fill="#242424"/>
<path d="M6.00443 5.625H2.76172V8.87209H6.00443V5.625Z" fill="#242424"/>
<path d="M15.5044 5.625H12.2617V8.87209H15.5044V5.625Z" fill="#242424"/>
<path d="M32.604 5.625H29.3613V8.87209H32.604V5.625Z" fill="#242424"/>
<path d="M42.1294 5.625H38.8867V8.87209H42.1294V5.625Z" fill="#242424"/>
<path d="M32.604 13.7043H29.3613V16.9514H32.604V13.7043Z" fill="#242424"/>
<path d="M42.1294 13.7043H38.8867V16.9514H42.1294V13.7043Z" fill="#242424"/>
<path d="M52.2383 22.6785C55.557 22.4739 58.1917 19.6615 58.1917 16.261H54.949C54.949 17.8717 53.7583 19.2013 52.2383 19.4058V22.6785Z" fill="#242424"/>
<path d="M51.3763 22.6529V19.3802C49.8563 19.1757 48.691 17.8462 48.691 16.261H45.4482C45.4482 19.6615 48.0576 22.4484 51.3763 22.6529Z" fill="#242424"/>
<path d="M48.6909 12.9373H45.4482V16.9514H48.6909V12.9373Z" fill="#242424"/>
<path d="M6.00443 9.9458H2.76172V16.9513H6.00443V9.9458Z" fill="#242424"/>
<path d="M8.71514 0C5.39642 0.230109 2.76172 3.01698 2.76172 6.41748H6.00443C6.00443 4.80672 7.19511 3.50277 8.71514 3.27266V0Z" fill="#242424"/>
<path d="M9.57617 0V3.29823C11.0962 3.50277 12.2615 4.83229 12.2615 6.41748H15.5043C15.5043 3.01698 12.8949 0.230109 9.57617 0Z" fill="#242424"/>
<path d="M0.0253906 22.5251C3.3441 22.3206 5.97881 19.5337 5.97881 16.1077H2.73609C2.73609 17.7184 1.54541 19.0224 0.0253906 19.2525V22.5251Z" fill="#242424"/>
<path d="M15.5045 9.9458H12.2871V22.1416H15.5045V9.9458Z" fill="#242424"/>
<path d="M65.1334 11.2244L61.916 15.5454V0.460449H65.1334V11.2244Z" fill="#242424"/>
<path d="M74.8111 22.1929H71.5938V11.7101L74.8111 7.59375V22.1929Z" fill="#242424"/>
<path d="M74.8109 0.0253906L61.916 17.5392V22.7806L74.8109 5.3946V0.0253906Z" fill="#242424"/>
<path d="M15.3775 39.1953L12.1602 43.235V38.9908L15.3775 34.6443V39.1953Z" fill="#242424"/>
<path d="M25.6881 49.8824H22.4707V38.8883L25.6881 35.0276V49.8824Z" fill="#242424"/>
<path d="M25.6883 27.7153L12.1602 45.2292V50.4706L25.6883 33.0845V27.7153Z" fill="#242424"/>
<path d="M15.3775 27.7153L0 45.2292V50.4706L15.3775 33.0845V27.7153Z" fill="#242424"/>
<path d="M70.1493 55.0728C65.5132 55.3796 61.8398 59.2659 61.8398 64.0214H66.3746C66.3746 61.7971 68.0213 59.9306 70.1746 59.6494V55.0728H70.1493Z" fill="#242424"/>
<path d="M71.3398 55.0728V59.6494C73.4679 59.9562 75.0892 61.7971 75.0892 64.0214H79.6239C79.6239 59.2659 75.9506 55.3796 71.3398 55.0728Z" fill="#242424"/>
<path d="M83.4745 55.0728C78.8384 55.3796 75.165 59.2659 75.165 64.0214H79.6998C79.6998 61.7971 81.3465 59.9306 83.4998 59.6494V55.0728H83.4745Z" fill="#242424"/>
<path d="M84.665 55.0728V59.6494C86.7931 59.9562 88.4144 61.7971 88.4144 64.0214H92.9491C92.9491 59.2659 89.3011 55.3796 84.665 55.0728Z" fill="#242424"/>
<path d="M76.8374 75.5784C74.608 74.479 66.9319 70.2859 66.5772 65.249H61.8398C62.1945 72.7659 74 78.9789 76.812 80.3595V75.5784H76.8374Z" fill="#242424"/>
<path d="M88.2885 65.2485C87.9591 70.2854 80.2577 74.4785 78.0283 75.5779V80.359C80.8404 78.9784 92.6712 72.7654 93.0005 65.2485H88.2885Z" fill="#242424"/>
</svg>
